<svg xmlns="http://www.w3.org/2000/svg" enable-background="new 0 0 512 512" viewBox="0 0 512 512"><linearGradient id="a" x1="252.536" x2="259.339" y1="65.686" y2="385.434" gradientUnits="userSpaceOnUse"><stop offset="0" stop-color="#9cdbf8"/><stop offset=".313" stop-color="#b7e4fa"/><stop offset=".972" stop-color="#fafdff"/><stop offset="1" stop-color="#fff"/></linearGradient><path fill="url(#a)" d="M256.5,98.629C138.57,98.629,73.106,157.762,18,252c55.105,94.237,120.569,162,238.5,162
	c117.93,0,183.395-67.763,238.5-162C439.895,157.762,374.43,98.629,256.5,98.629z"/><linearGradient id="b" x1="127.667" x2="385.333" y1="256.315" y2="256.315" gradientUnits="userSpaceOnUse"><stop offset="0" stop-color="#00a986"/><stop offset="1" stop-color="#1b93d1"/></linearGradient><ellipse cx="256.5" cy="256.315" fill="url(#b)" rx="128.833" ry="127.501"/><linearGradient id="c" x1="191.036" x2="321.964" y1="256.315" y2="256.315" gradientUnits="userSpaceOnUse"><stop offset="0" stop-color="#005b9e"/><stop offset="1" stop-color="#403491"/></linearGradient><ellipse cx="256.5" cy="256.315" fill="url(#c)" rx="65.464" ry="64.787"/><linearGradient id="d" x1="166.501" x2="257.306" y1="209.563" y2="209.563" gradientUnits="userSpaceOnUse"><stop offset="0" stop-color="#9cdbf8"/><stop offset="1" stop-color="#fff"/></linearGradient><path fill="url(#d)" d="M250.903,170.966c12.832,12.698,5.773,40.273-15.766,61.59
	c-21.539,21.317-49.402,28.303-62.233,15.605c-12.832-12.698-5.773-40.273,15.766-61.59
	C210.209,165.254,238.071,158.268,250.903,170.966z" opacity=".31"/><linearGradient id="e" x1="269.403" x2="301.087" y1="255.44" y2="255.44" gradientUnits="userSpaceOnUse"><stop offset="0" stop-color="#9cdbf8"/><stop offset="1" stop-color="#fff"/></linearGradient><ellipse cx="285.245" cy="255.44" fill="url(#e)" rx="15.842" ry="15.678"/><linearGradient id="f" x1="214.803" x2="78.74" y1="329.368" y2="324.265" gradientUnits="userSpaceOnUse"><stop offset="0" stop-color="#ec2227"/><stop offset="1" stop-color="#7f4b9d"/></linearGradient><path fill="url(#f)" d="M121.427,337h41.519c1.474,2.961,4.522,5,8.053,5c4.971,0,9-4.029,9-9c0-4.971-4.029-9-9-9
		c-3.532,0-6.58,2.039-8.053,5h-37.999l-19.125-18H18v8h84.302L121.427,337z"/><linearGradient id="g" x1="211.902" x2="75.839" y1="406.713" y2="401.611" gradientUnits="userSpaceOnUse"><stop offset="0" stop-color="#ec2227"/><stop offset="1" stop-color="#7f4b9d"/></linearGradient><path fill="url(#g)" d="M135,396c-3.532,0-6.58,2.039-8.053,5h-18.002l-18-9H18v8h71.056l18,9h19.891
		c1.474,2.961,4.522,5,8.053,5c4.971,0,9-4.029,9-9C144,400.029,139.971,396,135,396z"/><linearGradient id="h" x1="214.504" x2="78.441" y1="337.331" y2="332.229" gradientUnits="userSpaceOnUse"><stop offset="0" stop-color="#ec2227"/><stop offset="1" stop-color="#7f4b9d"/></linearGradient><path fill="url(#h)" d="M99,342c4.971,0,9-4.029,9-9c0-4.971-4.029-9-9-9c-3.532,0-6.58,2.039-8.053,5H18v8h72.947
		C92.42,339.961,95.468,342,99,342z"/><linearGradient id="i" x1="213.924" x2="77.861" y1="352.806" y2="347.704" gradientUnits="userSpaceOnUse"><stop offset="0" stop-color="#ec2227"/><stop offset="1" stop-color="#7f4b9d"/></linearGradient><path fill="url(#i)" d="M180,342c-3.532,0-6.58,2.039-8.053,5H18v8h153.947c1.474,2.961,4.522,5,8.053,5
		c4.971,0,9-4.029,9-9C189,346.029,184.971,342,180,342z"/><linearGradient id="j" x1="213.069" x2="77.006" y1="375.612" y2="370.51" gradientUnits="userSpaceOnUse"><stop offset="0" stop-color="#ec2227"/><stop offset="1" stop-color="#7f4b9d"/></linearGradient><path fill="url(#j)" d="M162,360c-3.532,0-6.58,2.039-8.053,5h-28.891l-18,9H18v8h90.944l18-9h27.002
		c1.474,2.961,4.522,5,8.053,5c4.971,0,9-4.029,9-9C171,364.029,166.971,360,162,360z"/><g><linearGradient id="k" x1="333" x2="495" y1="186.5" y2="186.5" gradientUnits="userSpaceOnUse"><stop offset="0" stop-color="#ec2227"/><stop offset="1" stop-color="#7f4b9d"/></linearGradient><path fill="url(#k)" d="M391.573,176h-41.519c-1.474-2.961-4.522-5-8.053-5c-4.971,0-9,4.029-9,9c0,4.971,4.029,9,9,9
		c3.532,0,6.58-2.039,8.053-5h37.999l19.125,18H495v-8h-84.302L391.573,176z"/><linearGradient id="l" x1="369" x2="495" y1="110" y2="110" gradientUnits="userSpaceOnUse"><stop offset="0" stop-color="#ec2227"/><stop offset="1" stop-color="#7f4b9d"/></linearGradient><path fill="url(#l)" d="M378,117c3.532,0,6.58-2.039,8.053-5h18.002l18,9H495v-8h-71.056l-18-9h-19.891
		c-1.474-2.961-4.522-5-8.053-5c-4.971,0-9,4.029-9,9C369,112.971,373.029,117,378,117z"/><linearGradient id="m" x1="405" x2="495" y1="180" y2="180" gradientUnits="userSpaceOnUse"><stop offset="0" stop-color="#ec2227"/><stop offset="1" stop-color="#7f4b9d"/></linearGradient><path fill="url(#m)" d="M414,171c-4.971,0-9,4.029-9,9c0,4.971,4.029,9,9,9c3.532,0,6.58-2.039,8.053-5H495v-8h-72.947
		C420.58,173.039,417.532,171,414,171z"/><linearGradient id="n" x1="324" x2="495" y1="162" y2="162" gradientUnits="userSpaceOnUse"><stop offset="0" stop-color="#ec2227"/><stop offset="1" stop-color="#7f4b9d"/></linearGradient><path fill="url(#n)" d="M333,171c3.532,0,6.58-2.039,8.053-5H495v-8H341.053c-1.474-2.961-4.522-5-8.053-5
		c-4.971,0-9,4.029-9,9C324,166.971,328.029,171,333,171z"/><linearGradient id="o" x1="342" x2="495" y1="142" y2="142" gradientUnits="userSpaceOnUse"><stop offset="0" stop-color="#ec2227"/><stop offset="1" stop-color="#7f4b9d"/></linearGradient><path fill="url(#o)" d="M351,153c3.532,0,6.58-2.039,8.053-5h28.891l18-9H495v-8h-90.944l-18,9h-27.002
		c-1.474-2.961-4.522-5-8.053-5c-4.971,0-9,4.029-9,9C342,148.971,346.029,153,351,153z"/></g></svg>