<svg xmlns="http://www.w3.org/2000/svg" viewBox="0 0 48 48"><polygon fill="#a6d2ff" points="33 39 35 47 16 47 15 40 10 34 41 27 33 39"/><polygon fill="#64a2ed" points="29 35 15 40 10 34 29 35"/><path fill="#d3e2f5" d="M28.211,36.493A17.434,17.434,0,0,0,35.8,33.8,17.793,17.793,0,1,0,8.442,18.8L4,29H8v8H18Z"/><path fill="#a6d2ff" d="M44 18.8a17.756 17.756 0 0 1-8.2 15 17.412 17.412 0 0 1-7.59 2.69l-2.69.13a17.344 17.344 0 0 0 6.28-2.49A17.806 17.806 0 0 0 22.75 1.34 17.988 17.988 0 0 1 26.22 1 17.8 17.8 0 0 1 44 18.8zM17 18L7.68 20.54l.76-1.74c0-.59.03-1.17.08-1.74z"/><polygon fill="#a6d2ff" points="6 29 9 21 8 29 6 29"/><path fill="#a6d2ff" d="M38.309,24.194A11.9,11.9,0,0,0,38.79,18a12.205,12.205,0,0,0-2.884-5.72c-4.864-5.739-13.771-5.313-14.9-5.244a22.888,22.888,0,0,0,.659,5.953c.763,3.089,2.044,8.275,6.551,10.731C32.38,25.986,36.956,24.647,38.309,24.194Z"/><path fill="#64a2ed" d="M38.31,24.19c-1.35.46-5.93,1.8-10.09-.47a10.2,10.2,0,0,1-3.4-3.02,11.436,11.436,0,0,0,1.673.258,5.905,5.905,0,0,0,6.313-6.874L32.79,14a12.217,12.217,0,0,0-2.88-5.72,13.844,13.844,0,0,1,6,4A12.217,12.217,0,0,1,38.79,18,11.965,11.965,0,0,1,38.31,24.19Z"/><path fill="#3674ce" d="M40.17,29.83a15.968,15.968,0,0,1-1.98,2.13,20.129,20.129,0,0,0-1.13-7.62A21.076,21.076,0,0,0,26.56,12.9a1,1,0,0,1-.46-1.34,1.015,1.015,0,0,1,1.34-.46,23.147,23.147,0,0,1,11.5,12.56A21.474,21.474,0,0,1,40.17,29.83Z"/></svg>