<svg width="250" height="250" viewBox="0 0 250 250" fill="none" xmlns="http://www.w3.org/2000/svg">
<path d="M95.95 44.35C95.7 46.2 95.85 83.25 96.1 83.65C96.35 84.05 111.05 84.2 148.2 84.25L199.9 84.3L203.85 77.55C206 73.8 208 70.4 208.25 69.9C208.8 69 211.8 63.75 213.35 61C213.9 60 215.95 56.45 217.9 53.1C219.9 49.7 221.85 46.3 222.25 45.5L223.05 44H159.5C124.6 44 96 44.15 95.95 44.35Z" fill="#FF4500"/>
<path d="M26.15 104.4L25 104.55V124.55V144.5H93.3H161.6L162.55 143.35C163.05 142.75 163.45 142.1 163.5 141.95C163.5 141.7 168.95 132 170.5 129.5C170.9 128.8 180.6 112.05 181.45 110.5C181.7 110.1 182.6 108.55 183.45 107.1C184.3 105.65 185 104.4 185 104.35C185 104.2 27.3 104.25 26.15 104.4Z" fill="#F79D5C"/>
<path d="M96.15 165.95C95.9 166.1 95.75 175.15 95.75 186L95.8 205.75L114 205.9L132.25 206L132.95 204.4C133.35 203.5 134.05 202.2 134.5 201.5C134.95 200.8 135.9 199.25 136.6 198C137.3 196.75 141.65 189.2 146.25 181.25C150.85 173.25 154.7 166.5 154.85 166.2C155.05 165.65 96.9 165.4 96.15 165.95Z" fill="#F6F8FA"/>
</svg>
