<svg xmlns="http://www.w3.org/2000/svg" viewBox="0 0 32 32"><g data-name="&lt;Group&gt;"><path fill="#f49cc8" d="M8.09,25.84A3.6,3.6,0,0,1,7,26a4,4,0,0,1-4-4,4,4,0,0,1,1.36-3,4,4,0,0,1,2.06-6.95A4.8,4.8,0,0,1,6,10a4,4,0,0,1,4-4,3,3,0,0,1,6,0V25a4,4,0,0,1-7.91.84Z"/><path fill="#f469af" d="M29,16a4,4,0,0,0-3.42-4A4.8,4.8,0,0,0,26,10a4,4,0,0,0-4-4,3,3,0,0,0-6,0V25a4,4,0,0,0,7.91.84A3.59,3.59,0,0,0,25,26a4,4,0,0,0,4-4,4,4,0,0,0-1.36-3A4,4,0,0,0,29,16Z"/><path fill="#133754" d="M30,16a5,5,0,0,0-3.14-4.63A6.36,6.36,0,0,0,27,10a5,5,0,0,0-4.11-4.91A4,4,0,0,0,16,3.38,4,4,0,0,0,9.11,5.09,5,5,0,0,0,5,10a6.36,6.36,0,0,0,.15,1.38A5,5,0,0,0,3,19a5,5,0,0,0,4,8c.14,0,.28,0,.42,0A5,5,0,0,0,16,28a5,5,0,0,0,8.59-1c.14,0,.27,0,.41,0a5,5,0,0,0,4-8A5,5,0,0,0,30,16ZM12,28a3,3,0,0,1-2.64-1.61,5,5,0,0,0,2.47-3.09l-1.93-.51a3,3,0,0,1-2.1,2.1A2.59,2.59,0,0,1,7,25a3,3,0,0,1-3-3,2.94,2.94,0,0,1,.52-1.67,5,5,0,0,0,6.24-1L9.25,18A2.93,2.93,0,0,1,7,19a3,3,0,0,1-1.06-5.79,5.5,5.5,0,0,0,3.91,2.24l.31-2a3.43,3.43,0,0,1-2.83-1.85A3.82,3.82,0,0,1,7,10,3,3,0,0,1,9.18,7.13s0,.1,0,.14A4,4,0,0,0,13,10V8a2,2,0,0,1-1.89-1.38A1.76,1.76,0,0,1,11,6a2,2,0,0,1,4,0V9a2,2,0,0,1-2,2,2,2,0,0,1-1.33-.51L10.33,12a3.94,3.94,0,0,0,4.67.47V18a2,2,0,0,1-2,2,2,2,0,0,1-1.33-.51L10.33,21a3.94,3.94,0,0,0,4.67.47V25A3,3,0,0,1,12,28Zm13-3a2.65,2.65,0,0,1-.82-.12,3,3,0,0,1-2.07-2.09l-1.93.51a5,5,0,0,0,2.47,3.1A3,3,0,0,1,17,25V21.44A3.94,3.94,0,0,0,21.67,21l-1.34-1.48A2,2,0,0,1,19,20a2,2,0,0,1-2-2V12.44A3.94,3.94,0,0,0,21.67,12l-1.34-1.48A2,2,0,0,1,19,11a2,2,0,0,1-2-2V6a2,2,0,0,1,4,0,1.83,1.83,0,0,1-.12.65A2,2,0,0,1,19,8v2a4,4,0,0,0,3.77-2.7c0-.06,0-.12,0-.18A3,3,0,0,1,25,10a3.81,3.81,0,0,1-.33,1.63,3.42,3.42,0,0,1-2.82,1.84l.31,2a5.5,5.5,0,0,0,3.91-2.24,3,3,0,0,1,.92,5,3.07,3.07,0,0,1-4,0L22.74,18l-1.49,1.34.35.36a5,5,0,0,0,5.87.65A2.94,2.94,0,0,1,28,22,3,3,0,0,1,25,25Z"/></g></svg>